<svg xmlns="http://www.w3.org/2000/svg" viewBox="0 0 276.44 148.83"><title>cup-layer</title><path d="M276.4.2A3.72,3.72,0,0,0,274.53,0H2.16C-.22,0,0-.21,0,2.14Q0,74.55,0,146.93a3.67,3.67,0,0,0,.16,1.86q137.26,0,274.53,0c1.35,0,1.71-.2,1.71-1.65Q276.37,73.69,276.4.2Zm-6.22,37.4c-2,5.8-4,11.59-5.9,17.39-2.24,6.74-4.41,13.49-6.66,20.22-2.45,7.33-5,14.63-7.43,22-3.08,9.22-6.06,18.47-9.16,27.69-.91,2.71-1.94,5.38-2.7,8.14a3.47,3.47,0,0,1-2,2.4c-2.1.9-4.14,2-6.22,2.94a3.68,3.68,0,0,1-2.8-.22c-7-2.25-14.06-4.18-21.19-5.89a255.45,255.45,0,0,0-25.6-4.85c-6.35-.85-12.7-1.61-19.09-2.09-4.17-.31-8.35-.4-12.51-.71a137,137,0,0,0-15.16-.2c-7,.26-14,.41-20.9,1.22-4.6.53-9.21,1-13.8,1.54-4.93.59-9.81,1.55-14.69,2.45a258,258,0,0,0-25.85,6.24c-3.91,1.14-7.74,2.5-11.65,3.62-2.64.76-3.63.49-5.23-1.76-.21-.3-.27-.89-.83-.68-1.52.59-1.68-.51-2-1.51q-5.46-16.38-10.95-32.75c-3-9.06-6.14-18.1-9.17-27.17-3.7-11.08-7.33-22.18-11-33.27C7.41,41.69,7.2,41.15,8,41s1-.73.85-1.5c-.46-3.51,0-6.24,4-7.89,2.76-1.12,5.53-2.18,8.36-3C33,25,44.89,21.88,57,19.46c7.6-1.52,15.2-3.09,22.89-4.09,7.25-.95,14.5-1.9,21.76-2.7,3.75-.42,7.55-.45,11.31-.78,4.68-.4,9.37-.59,13.92-.69,4.23.26,8.28-.43,12.37-.35,5.51.12,11,.34,16.52.46,6.8.15,13.61.69,20.38,1.35,11.94,1.16,23.82,2.79,35.64,5,7,1.27,13.93,2.64,20.8,4.29,10.05,2.42,20.05,5.08,29.87,8.39,1.63.54,3.28,1,4.91,1.56C270.26,32.84,271.17,34.71,270.18,37.6Z" fill="#cbcbcb"/></svg>